<mxfile host="app.diagrams.net" modified="2021-01-25T12:04:54.750Z" agent="5.0 (Windows NT 10.0; Win64; x64) AppleWebKit/537.36 (KHTML, like Gecko) Chrome/87.0.4280.141 Safari/537.36" etag="ZrGl6nHzroXtm4XSnqAD" version="14.2.7" type="github">
  <diagram id="vv8O67tImIsYpwHOuYqv" name="Page-1">
    <mxGraphModel dx="1550" dy="836" grid="1" gridSize="10" guides="1" tooltips="1" connect="1" arrows="1" fold="1" page="1" pageScale="1" pageWidth="827" pageHeight="1169" math="0" shadow="0">
      <root>
        <mxCell id="0" />
        <mxCell id="1" parent="0" />
        <mxCell id="xLEmRWIhqkkdyBfKkRF5-9" style="edgeStyle=none;rounded=0;orthogonalLoop=1;jettySize=auto;html=1;exitX=1;exitY=0.5;exitDx=0;exitDy=0;entryX=0;entryY=0.5;entryDx=0;entryDy=0;fillColor=#dae8fc;strokeColor=#6c8ebf;strokeWidth=5;" edge="1" parent="1" source="xLEmRWIhqkkdyBfKkRF5-8" target="DXlCyL1Qz88-cnKDvmDq-8">
          <mxGeometry relative="1" as="geometry" />
        </mxCell>
        <mxCell id="xLEmRWIhqkkdyBfKkRF5-8" value="" style="rounded=1;whiteSpace=wrap;html=1;fillColor=#dae8fc;strokeColor=#6c8ebf;opacity=60;" vertex="1" parent="1">
          <mxGeometry x="80" y="250" width="140" height="60" as="geometry" />
        </mxCell>
        <mxCell id="DXlCyL1Qz88-cnKDvmDq-97" value="" style="rounded=1;whiteSpace=wrap;html=1;fillColor=#f8cecc;strokeColor=#b85450;opacity=60;" parent="1" vertex="1">
          <mxGeometry x="40" y="530" width="300" height="60" as="geometry" />
        </mxCell>
        <mxCell id="DXlCyL1Qz88-cnKDvmDq-98" value="" style="rounded=1;whiteSpace=wrap;html=1;fillColor=#f8cecc;strokeColor=#b85450;opacity=60;" parent="1" vertex="1">
          <mxGeometry x="400" y="530" width="360" height="60" as="geometry" />
        </mxCell>
        <mxCell id="DXlCyL1Qz88-cnKDvmDq-99" style="edgeStyle=orthogonalEdgeStyle;rounded=0;orthogonalLoop=1;jettySize=auto;html=1;exitX=1;exitY=0.5;exitDx=0;exitDy=0;entryX=0;entryY=0.5;entryDx=0;entryDy=0;strokeWidth=5;fillColor=#f8cecc;strokeColor=#b85450;" parent="1" edge="1">
          <mxGeometry relative="1" as="geometry">
            <mxPoint x="340" y="560" as="sourcePoint" />
            <mxPoint x="400" y="560" as="targetPoint" />
          </mxGeometry>
        </mxCell>
        <mxCell id="DXlCyL1Qz88-cnKDvmDq-34" value="" style="rounded=1;whiteSpace=wrap;html=1;fillColor=#f8cecc;strokeColor=#b85450;opacity=60;" parent="1" vertex="1">
          <mxGeometry x="400" y="170" width="220" height="60" as="geometry" />
        </mxCell>
        <mxCell id="DXlCyL1Qz88-cnKDvmDq-33" value="" style="rounded=1;whiteSpace=wrap;html=1;fillColor=#f8cecc;strokeColor=#b85450;opacity=60;" parent="1" vertex="1">
          <mxGeometry x="40" y="170" width="300" height="60" as="geometry" />
        </mxCell>
        <mxCell id="DXlCyL1Qz88-cnKDvmDq-30" value="" style="rounded=1;whiteSpace=wrap;html=1;fillColor=#d5e8d4;strokeColor=#82b366;opacity=60;" parent="1" vertex="1">
          <mxGeometry x="130" y="90" width="120" height="60" as="geometry" />
        </mxCell>
        <mxCell id="DXlCyL1Qz88-cnKDvmDq-31" value="" style="rounded=1;whiteSpace=wrap;html=1;fillColor=#d5e8d4;strokeColor=#82b366;opacity=60;" parent="1" vertex="1">
          <mxGeometry x="490" y="90" width="120" height="60" as="geometry" />
        </mxCell>
        <mxCell id="V1IsNGdMlHH5mV4LZ8SK-8" style="rounded=0;orthogonalLoop=1;jettySize=auto;html=1;exitX=0;exitY=1;exitDx=0;exitDy=0;entryX=0.5;entryY=0;entryDx=0;entryDy=0;" parent="1" source="V1IsNGdMlHH5mV4LZ8SK-2" target="V1IsNGdMlHH5mV4LZ8SK-4" edge="1">
          <mxGeometry relative="1" as="geometry" />
        </mxCell>
        <mxCell id="V1IsNGdMlHH5mV4LZ8SK-9" style="edgeStyle=none;rounded=0;orthogonalLoop=1;jettySize=auto;html=1;exitX=0.5;exitY=1;exitDx=0;exitDy=0;entryX=0.5;entryY=0;entryDx=0;entryDy=0;" parent="1" source="V1IsNGdMlHH5mV4LZ8SK-2" target="V1IsNGdMlHH5mV4LZ8SK-5" edge="1">
          <mxGeometry relative="1" as="geometry" />
        </mxCell>
        <mxCell id="V1IsNGdMlHH5mV4LZ8SK-10" style="edgeStyle=none;rounded=0;orthogonalLoop=1;jettySize=auto;html=1;exitX=0.5;exitY=1;exitDx=0;exitDy=0;entryX=0.5;entryY=0;entryDx=0;entryDy=0;" parent="1" source="V1IsNGdMlHH5mV4LZ8SK-2" target="V1IsNGdMlHH5mV4LZ8SK-6" edge="1">
          <mxGeometry relative="1" as="geometry" />
        </mxCell>
        <mxCell id="V1IsNGdMlHH5mV4LZ8SK-11" style="edgeStyle=none;rounded=0;orthogonalLoop=1;jettySize=auto;html=1;exitX=1;exitY=1;exitDx=0;exitDy=0;entryX=0.5;entryY=0;entryDx=0;entryDy=0;" parent="1" source="V1IsNGdMlHH5mV4LZ8SK-2" target="V1IsNGdMlHH5mV4LZ8SK-7" edge="1">
          <mxGeometry relative="1" as="geometry" />
        </mxCell>
        <mxCell id="V1IsNGdMlHH5mV4LZ8SK-2" value="&lt;font style=&quot;font-size: 18px&quot;&gt;A&lt;/font&gt;" style="ellipse;whiteSpace=wrap;html=1;aspect=fixed;" parent="1" vertex="1">
          <mxGeometry x="170" y="100" width="40" height="40" as="geometry" />
        </mxCell>
        <mxCell id="V1IsNGdMlHH5mV4LZ8SK-4" value="&lt;font style=&quot;font-size: 18px&quot;&gt;B&lt;/font&gt;" style="ellipse;whiteSpace=wrap;html=1;aspect=fixed;" parent="1" vertex="1">
          <mxGeometry x="50" y="180" width="40" height="40" as="geometry" />
        </mxCell>
        <mxCell id="V1IsNGdMlHH5mV4LZ8SK-5" value="&lt;font style=&quot;font-size: 18px&quot;&gt;C&lt;/font&gt;" style="ellipse;whiteSpace=wrap;html=1;aspect=fixed;" parent="1" vertex="1">
          <mxGeometry x="130" y="180" width="40" height="40" as="geometry" />
        </mxCell>
        <mxCell id="V1IsNGdMlHH5mV4LZ8SK-6" value="&lt;font style=&quot;font-size: 18px&quot;&gt;D&lt;/font&gt;" style="ellipse;whiteSpace=wrap;html=1;aspect=fixed;" parent="1" vertex="1">
          <mxGeometry x="210" y="180" width="40" height="40" as="geometry" />
        </mxCell>
        <mxCell id="V1IsNGdMlHH5mV4LZ8SK-7" value="&lt;font style=&quot;font-size: 18px&quot;&gt;E&lt;/font&gt;" style="ellipse;whiteSpace=wrap;html=1;aspect=fixed;" parent="1" vertex="1">
          <mxGeometry x="290" y="180" width="40" height="40" as="geometry" />
        </mxCell>
        <mxCell id="V1IsNGdMlHH5mV4LZ8SK-13" style="rounded=0;orthogonalLoop=1;jettySize=auto;html=1;exitX=0;exitY=1;exitDx=0;exitDy=0;entryX=0.5;entryY=0;entryDx=0;entryDy=0;" parent="1" source="V1IsNGdMlHH5mV4LZ8SK-17" target="V1IsNGdMlHH5mV4LZ8SK-18" edge="1">
          <mxGeometry relative="1" as="geometry" />
        </mxCell>
        <mxCell id="V1IsNGdMlHH5mV4LZ8SK-14" style="edgeStyle=none;rounded=0;orthogonalLoop=1;jettySize=auto;html=1;exitX=0.5;exitY=1;exitDx=0;exitDy=0;entryX=0.5;entryY=0;entryDx=0;entryDy=0;" parent="1" source="V1IsNGdMlHH5mV4LZ8SK-17" target="V1IsNGdMlHH5mV4LZ8SK-19" edge="1">
          <mxGeometry relative="1" as="geometry" />
        </mxCell>
        <mxCell id="V1IsNGdMlHH5mV4LZ8SK-15" style="edgeStyle=none;rounded=0;orthogonalLoop=1;jettySize=auto;html=1;exitX=0.5;exitY=1;exitDx=0;exitDy=0;entryX=0.5;entryY=0;entryDx=0;entryDy=0;" parent="1" source="V1IsNGdMlHH5mV4LZ8SK-17" target="V1IsNGdMlHH5mV4LZ8SK-20" edge="1">
          <mxGeometry relative="1" as="geometry" />
        </mxCell>
        <mxCell id="V1IsNGdMlHH5mV4LZ8SK-16" style="edgeStyle=none;rounded=0;orthogonalLoop=1;jettySize=auto;html=1;exitX=1;exitY=1;exitDx=0;exitDy=0;entryX=0;entryY=0;entryDx=0;entryDy=0;" parent="1" source="V1IsNGdMlHH5mV4LZ8SK-20" target="V1IsNGdMlHH5mV4LZ8SK-21" edge="1">
          <mxGeometry relative="1" as="geometry" />
        </mxCell>
        <mxCell id="V1IsNGdMlHH5mV4LZ8SK-17" value="&lt;font style=&quot;font-size: 18px&quot;&gt;A&lt;/font&gt;" style="ellipse;whiteSpace=wrap;html=1;aspect=fixed;" parent="1" vertex="1">
          <mxGeometry x="530" y="100" width="40" height="40" as="geometry" />
        </mxCell>
        <mxCell id="V1IsNGdMlHH5mV4LZ8SK-18" value="&lt;font style=&quot;font-size: 18px&quot;&gt;B&lt;/font&gt;" style="ellipse;whiteSpace=wrap;html=1;aspect=fixed;" parent="1" vertex="1">
          <mxGeometry x="410" y="180" width="40" height="40" as="geometry" />
        </mxCell>
        <mxCell id="V1IsNGdMlHH5mV4LZ8SK-19" value="&lt;font style=&quot;font-size: 18px&quot;&gt;E&lt;/font&gt;" style="ellipse;whiteSpace=wrap;html=1;aspect=fixed;" parent="1" vertex="1">
          <mxGeometry x="490" y="180" width="40" height="40" as="geometry" />
        </mxCell>
        <mxCell id="V1IsNGdMlHH5mV4LZ8SK-20" value="&lt;font style=&quot;font-size: 18px&quot;&gt;C&lt;/font&gt;" style="ellipse;whiteSpace=wrap;html=1;aspect=fixed;" parent="1" vertex="1">
          <mxGeometry x="570" y="180" width="40" height="40" as="geometry" />
        </mxCell>
        <mxCell id="V1IsNGdMlHH5mV4LZ8SK-21" value="&lt;font style=&quot;font-size: 18px&quot;&gt;D&lt;/font&gt;" style="ellipse;whiteSpace=wrap;html=1;aspect=fixed;" parent="1" vertex="1">
          <mxGeometry x="650" y="260" width="40" height="40" as="geometry" />
        </mxCell>
        <mxCell id="DXlCyL1Qz88-cnKDvmDq-4" style="edgeStyle=orthogonalEdgeStyle;rounded=0;orthogonalLoop=1;jettySize=auto;html=1;exitX=1;exitY=0.5;exitDx=0;exitDy=0;entryX=0;entryY=0.5;entryDx=0;entryDy=0;fillColor=#d5e8d4;strokeColor=#82b366;strokeWidth=5;" parent="1" source="DXlCyL1Qz88-cnKDvmDq-2" target="DXlCyL1Qz88-cnKDvmDq-3" edge="1">
          <mxGeometry relative="1" as="geometry" />
        </mxCell>
        <mxCell id="DXlCyL1Qz88-cnKDvmDq-2" value="" style="rounded=1;whiteSpace=wrap;html=1;fillColor=#d5e8d4;strokeColor=#82b366;opacity=60;" parent="1" vertex="1">
          <mxGeometry x="130" y="90" width="120" height="60" as="geometry" />
        </mxCell>
        <mxCell id="DXlCyL1Qz88-cnKDvmDq-3" value="" style="rounded=1;whiteSpace=wrap;html=1;fillColor=#d5e8d4;strokeColor=#82b366;opacity=60;" parent="1" vertex="1">
          <mxGeometry x="490" y="90" width="120" height="60" as="geometry" />
        </mxCell>
        <mxCell id="DXlCyL1Qz88-cnKDvmDq-7" style="edgeStyle=orthogonalEdgeStyle;rounded=0;orthogonalLoop=1;jettySize=auto;html=1;exitX=1;exitY=0.5;exitDx=0;exitDy=0;entryX=0;entryY=0.5;entryDx=0;entryDy=0;strokeWidth=5;fillColor=#f8cecc;strokeColor=#b85450;" parent="1" source="DXlCyL1Qz88-cnKDvmDq-5" target="DXlCyL1Qz88-cnKDvmDq-6" edge="1">
          <mxGeometry relative="1" as="geometry" />
        </mxCell>
        <mxCell id="DXlCyL1Qz88-cnKDvmDq-5" value="" style="rounded=1;whiteSpace=wrap;html=1;fillColor=#f8cecc;strokeColor=#b85450;opacity=60;" parent="1" vertex="1">
          <mxGeometry x="40" y="170" width="300" height="60" as="geometry" />
        </mxCell>
        <mxCell id="DXlCyL1Qz88-cnKDvmDq-6" value="" style="rounded=1;whiteSpace=wrap;html=1;fillColor=#f8cecc;strokeColor=#b85450;opacity=60;" parent="1" vertex="1">
          <mxGeometry x="400" y="170" width="220" height="60" as="geometry" />
        </mxCell>
        <mxCell id="DXlCyL1Qz88-cnKDvmDq-8" value="" style="rounded=1;whiteSpace=wrap;html=1;fillColor=#dae8fc;strokeColor=#6c8ebf;opacity=60;" parent="1" vertex="1">
          <mxGeometry x="440" y="250" width="260" height="60" as="geometry" />
        </mxCell>
        <mxCell id="DXlCyL1Qz88-cnKDvmDq-11" style="rounded=0;orthogonalLoop=1;jettySize=auto;html=1;exitX=0;exitY=1;exitDx=0;exitDy=0;entryX=0.5;entryY=0;entryDx=0;entryDy=0;" parent="1" source="DXlCyL1Qz88-cnKDvmDq-15" target="DXlCyL1Qz88-cnKDvmDq-16" edge="1">
          <mxGeometry relative="1" as="geometry" />
        </mxCell>
        <mxCell id="DXlCyL1Qz88-cnKDvmDq-12" style="edgeStyle=none;rounded=0;orthogonalLoop=1;jettySize=auto;html=1;exitX=0.5;exitY=1;exitDx=0;exitDy=0;entryX=0.5;entryY=0;entryDx=0;entryDy=0;" parent="1" source="DXlCyL1Qz88-cnKDvmDq-15" target="DXlCyL1Qz88-cnKDvmDq-17" edge="1">
          <mxGeometry relative="1" as="geometry" />
        </mxCell>
        <mxCell id="DXlCyL1Qz88-cnKDvmDq-13" style="edgeStyle=none;rounded=0;orthogonalLoop=1;jettySize=auto;html=1;exitX=0.5;exitY=1;exitDx=0;exitDy=0;entryX=0.5;entryY=0;entryDx=0;entryDy=0;" parent="1" source="DXlCyL1Qz88-cnKDvmDq-15" target="DXlCyL1Qz88-cnKDvmDq-18" edge="1">
          <mxGeometry relative="1" as="geometry" />
        </mxCell>
        <mxCell id="DXlCyL1Qz88-cnKDvmDq-14" style="edgeStyle=none;rounded=0;orthogonalLoop=1;jettySize=auto;html=1;exitX=1;exitY=1;exitDx=0;exitDy=0;entryX=0.5;entryY=0;entryDx=0;entryDy=0;" parent="1" source="DXlCyL1Qz88-cnKDvmDq-15" target="DXlCyL1Qz88-cnKDvmDq-19" edge="1">
          <mxGeometry relative="1" as="geometry" />
        </mxCell>
        <mxCell id="DXlCyL1Qz88-cnKDvmDq-15" value="&lt;font style=&quot;font-size: 18px&quot;&gt;A&lt;/font&gt;" style="ellipse;whiteSpace=wrap;html=1;aspect=fixed;" parent="1" vertex="1">
          <mxGeometry x="170" y="100" width="40" height="40" as="geometry" />
        </mxCell>
        <mxCell id="DXlCyL1Qz88-cnKDvmDq-16" value="&lt;font style=&quot;font-size: 18px&quot;&gt;B&lt;/font&gt;" style="ellipse;whiteSpace=wrap;html=1;aspect=fixed;" parent="1" vertex="1">
          <mxGeometry x="50" y="180" width="40" height="40" as="geometry" />
        </mxCell>
        <mxCell id="xLEmRWIhqkkdyBfKkRF5-3" style="rounded=0;orthogonalLoop=1;jettySize=auto;html=1;exitX=0;exitY=1;exitDx=0;exitDy=0;entryX=0.5;entryY=0;entryDx=0;entryDy=0;" edge="1" parent="1" source="DXlCyL1Qz88-cnKDvmDq-17" target="xLEmRWIhqkkdyBfKkRF5-2">
          <mxGeometry relative="1" as="geometry" />
        </mxCell>
        <mxCell id="xLEmRWIhqkkdyBfKkRF5-5" style="edgeStyle=none;rounded=0;orthogonalLoop=1;jettySize=auto;html=1;exitX=1;exitY=1;exitDx=0;exitDy=0;entryX=0.5;entryY=0;entryDx=0;entryDy=0;" edge="1" parent="1" source="DXlCyL1Qz88-cnKDvmDq-17" target="xLEmRWIhqkkdyBfKkRF5-4">
          <mxGeometry relative="1" as="geometry" />
        </mxCell>
        <mxCell id="DXlCyL1Qz88-cnKDvmDq-17" value="&lt;font style=&quot;font-size: 18px&quot;&gt;C&lt;/font&gt;" style="ellipse;whiteSpace=wrap;html=1;aspect=fixed;" parent="1" vertex="1">
          <mxGeometry x="130" y="180" width="40" height="40" as="geometry" />
        </mxCell>
        <mxCell id="DXlCyL1Qz88-cnKDvmDq-18" value="&lt;font style=&quot;font-size: 18px&quot;&gt;D&lt;/font&gt;" style="ellipse;whiteSpace=wrap;html=1;aspect=fixed;" parent="1" vertex="1">
          <mxGeometry x="210" y="180" width="40" height="40" as="geometry" />
        </mxCell>
        <mxCell id="DXlCyL1Qz88-cnKDvmDq-19" value="&lt;font style=&quot;font-size: 18px&quot;&gt;E&lt;/font&gt;" style="ellipse;whiteSpace=wrap;html=1;aspect=fixed;" parent="1" vertex="1">
          <mxGeometry x="290" y="180" width="40" height="40" as="geometry" />
        </mxCell>
        <mxCell id="DXlCyL1Qz88-cnKDvmDq-20" style="rounded=0;orthogonalLoop=1;jettySize=auto;html=1;exitX=0;exitY=1;exitDx=0;exitDy=0;entryX=0.5;entryY=0;entryDx=0;entryDy=0;" parent="1" source="DXlCyL1Qz88-cnKDvmDq-24" target="DXlCyL1Qz88-cnKDvmDq-25" edge="1">
          <mxGeometry relative="1" as="geometry" />
        </mxCell>
        <mxCell id="DXlCyL1Qz88-cnKDvmDq-21" style="edgeStyle=none;rounded=0;orthogonalLoop=1;jettySize=auto;html=1;exitX=0.5;exitY=1;exitDx=0;exitDy=0;entryX=0.5;entryY=0;entryDx=0;entryDy=0;" parent="1" source="DXlCyL1Qz88-cnKDvmDq-24" target="DXlCyL1Qz88-cnKDvmDq-26" edge="1">
          <mxGeometry relative="1" as="geometry" />
        </mxCell>
        <mxCell id="DXlCyL1Qz88-cnKDvmDq-22" style="edgeStyle=none;rounded=0;orthogonalLoop=1;jettySize=auto;html=1;exitX=0.5;exitY=1;exitDx=0;exitDy=0;entryX=0.5;entryY=0;entryDx=0;entryDy=0;" parent="1" source="DXlCyL1Qz88-cnKDvmDq-24" target="DXlCyL1Qz88-cnKDvmDq-27" edge="1">
          <mxGeometry relative="1" as="geometry" />
        </mxCell>
        <mxCell id="DXlCyL1Qz88-cnKDvmDq-23" style="edgeStyle=none;rounded=0;orthogonalLoop=1;jettySize=auto;html=1;exitX=1;exitY=1;exitDx=0;exitDy=0;entryX=0;entryY=0;entryDx=0;entryDy=0;" parent="1" source="DXlCyL1Qz88-cnKDvmDq-27" target="DXlCyL1Qz88-cnKDvmDq-28" edge="1">
          <mxGeometry relative="1" as="geometry" />
        </mxCell>
        <mxCell id="DXlCyL1Qz88-cnKDvmDq-24" value="&lt;font style=&quot;font-size: 18px&quot;&gt;A&lt;/font&gt;" style="ellipse;whiteSpace=wrap;html=1;aspect=fixed;" parent="1" vertex="1">
          <mxGeometry x="530" y="100" width="40" height="40" as="geometry" />
        </mxCell>
        <mxCell id="DXlCyL1Qz88-cnKDvmDq-25" value="&lt;font style=&quot;font-size: 18px&quot;&gt;B&lt;/font&gt;" style="ellipse;whiteSpace=wrap;html=1;aspect=fixed;" parent="1" vertex="1">
          <mxGeometry x="410" y="180" width="40" height="40" as="geometry" />
        </mxCell>
        <mxCell id="xLEmRWIhqkkdyBfKkRF5-6" style="edgeStyle=none;rounded=0;orthogonalLoop=1;jettySize=auto;html=1;exitX=0;exitY=1;exitDx=0;exitDy=0;entryX=0.5;entryY=0;entryDx=0;entryDy=0;" edge="1" parent="1" source="DXlCyL1Qz88-cnKDvmDq-26" target="xLEmRWIhqkkdyBfKkRF5-7">
          <mxGeometry relative="1" as="geometry">
            <mxPoint x="480" y="270" as="targetPoint" />
          </mxGeometry>
        </mxCell>
        <mxCell id="DXlCyL1Qz88-cnKDvmDq-26" value="&lt;font style=&quot;font-size: 18px&quot;&gt;E&lt;/font&gt;" style="ellipse;whiteSpace=wrap;html=1;aspect=fixed;" parent="1" vertex="1">
          <mxGeometry x="490" y="180" width="40" height="40" as="geometry" />
        </mxCell>
        <mxCell id="DXlCyL1Qz88-cnKDvmDq-27" value="&lt;font style=&quot;font-size: 18px&quot;&gt;C&lt;/font&gt;" style="ellipse;whiteSpace=wrap;html=1;aspect=fixed;" parent="1" vertex="1">
          <mxGeometry x="570" y="180" width="40" height="40" as="geometry" />
        </mxCell>
        <mxCell id="DXlCyL1Qz88-cnKDvmDq-28" value="&lt;font style=&quot;font-size: 18px&quot;&gt;D&lt;/font&gt;" style="ellipse;whiteSpace=wrap;html=1;aspect=fixed;" parent="1" vertex="1">
          <mxGeometry x="650" y="260" width="40" height="40" as="geometry" />
        </mxCell>
        <mxCell id="DXlCyL1Qz88-cnKDvmDq-29" style="edgeStyle=orthogonalEdgeStyle;rounded=0;orthogonalLoop=1;jettySize=auto;html=1;exitX=1;exitY=0.5;exitDx=0;exitDy=0;entryX=0;entryY=0.5;entryDx=0;entryDy=0;fillColor=#d5e8d4;strokeColor=#82b366;strokeWidth=5;" parent="1" source="DXlCyL1Qz88-cnKDvmDq-30" target="DXlCyL1Qz88-cnKDvmDq-31" edge="1">
          <mxGeometry relative="1" as="geometry" />
        </mxCell>
        <mxCell id="DXlCyL1Qz88-cnKDvmDq-32" style="edgeStyle=orthogonalEdgeStyle;rounded=0;orthogonalLoop=1;jettySize=auto;html=1;exitX=1;exitY=0.5;exitDx=0;exitDy=0;entryX=0;entryY=0.5;entryDx=0;entryDy=0;strokeWidth=5;fillColor=#f8cecc;strokeColor=#b85450;" parent="1" source="DXlCyL1Qz88-cnKDvmDq-33" target="DXlCyL1Qz88-cnKDvmDq-34" edge="1">
          <mxGeometry relative="1" as="geometry" />
        </mxCell>
        <mxCell id="DXlCyL1Qz88-cnKDvmDq-37" value="&lt;font face=&quot;Times New Roman&quot; style=&quot;font-size: 18px&quot;&gt;新DOM树&lt;/font&gt;" style="text;html=1;strokeColor=none;fillColor=none;align=center;verticalAlign=middle;whiteSpace=wrap;rounded=0;" parent="1" vertex="1">
          <mxGeometry x="495" y="40" width="110" height="50" as="geometry" />
        </mxCell>
        <mxCell id="DXlCyL1Qz88-cnKDvmDq-38" value="&lt;font face=&quot;Times New Roman&quot; style=&quot;font-size: 18px&quot;&gt;旧DOM树&lt;/font&gt;" style="text;html=1;strokeColor=none;fillColor=none;align=center;verticalAlign=middle;whiteSpace=wrap;rounded=0;" parent="1" vertex="1">
          <mxGeometry x="130" y="40" width="110" height="50" as="geometry" />
        </mxCell>
        <mxCell id="DXlCyL1Qz88-cnKDvmDq-39" style="rounded=0;orthogonalLoop=1;jettySize=auto;html=1;exitX=0;exitY=1;exitDx=0;exitDy=0;entryX=0.5;entryY=0;entryDx=0;entryDy=0;" parent="1" source="DXlCyL1Qz88-cnKDvmDq-43" target="DXlCyL1Qz88-cnKDvmDq-44" edge="1">
          <mxGeometry relative="1" as="geometry" />
        </mxCell>
        <mxCell id="DXlCyL1Qz88-cnKDvmDq-40" style="edgeStyle=none;rounded=0;orthogonalLoop=1;jettySize=auto;html=1;exitX=0.5;exitY=1;exitDx=0;exitDy=0;entryX=0.5;entryY=0;entryDx=0;entryDy=0;" parent="1" source="DXlCyL1Qz88-cnKDvmDq-43" target="DXlCyL1Qz88-cnKDvmDq-45" edge="1">
          <mxGeometry relative="1" as="geometry" />
        </mxCell>
        <mxCell id="DXlCyL1Qz88-cnKDvmDq-41" style="edgeStyle=none;rounded=0;orthogonalLoop=1;jettySize=auto;html=1;exitX=0.5;exitY=1;exitDx=0;exitDy=0;entryX=0.5;entryY=0;entryDx=0;entryDy=0;" parent="1" source="DXlCyL1Qz88-cnKDvmDq-43" target="DXlCyL1Qz88-cnKDvmDq-46" edge="1">
          <mxGeometry relative="1" as="geometry" />
        </mxCell>
        <mxCell id="DXlCyL1Qz88-cnKDvmDq-42" style="edgeStyle=none;rounded=0;orthogonalLoop=1;jettySize=auto;html=1;exitX=1;exitY=1;exitDx=0;exitDy=0;entryX=0.5;entryY=0;entryDx=0;entryDy=0;" parent="1" source="DXlCyL1Qz88-cnKDvmDq-43" target="DXlCyL1Qz88-cnKDvmDq-47" edge="1">
          <mxGeometry relative="1" as="geometry" />
        </mxCell>
        <mxCell id="DXlCyL1Qz88-cnKDvmDq-43" value="&lt;font style=&quot;font-size: 18px&quot;&gt;A&lt;/font&gt;" style="ellipse;whiteSpace=wrap;html=1;aspect=fixed;" parent="1" vertex="1">
          <mxGeometry x="170" y="460" width="40" height="40" as="geometry" />
        </mxCell>
        <mxCell id="DXlCyL1Qz88-cnKDvmDq-44" value="&lt;font style=&quot;font-size: 18px&quot;&gt;B&lt;/font&gt;" style="ellipse;whiteSpace=wrap;html=1;aspect=fixed;" parent="1" vertex="1">
          <mxGeometry x="50" y="540" width="40" height="40" as="geometry" />
        </mxCell>
        <mxCell id="DXlCyL1Qz88-cnKDvmDq-45" value="&lt;font style=&quot;font-size: 18px&quot;&gt;C&lt;/font&gt;" style="ellipse;whiteSpace=wrap;html=1;aspect=fixed;" parent="1" vertex="1">
          <mxGeometry x="130" y="540" width="40" height="40" as="geometry" />
        </mxCell>
        <mxCell id="DXlCyL1Qz88-cnKDvmDq-46" value="&lt;font style=&quot;font-size: 18px&quot;&gt;D&lt;/font&gt;" style="ellipse;whiteSpace=wrap;html=1;aspect=fixed;" parent="1" vertex="1">
          <mxGeometry x="210" y="540" width="40" height="40" as="geometry" />
        </mxCell>
        <mxCell id="DXlCyL1Qz88-cnKDvmDq-47" value="&lt;font style=&quot;font-size: 18px&quot;&gt;E&lt;/font&gt;" style="ellipse;whiteSpace=wrap;html=1;aspect=fixed;" parent="1" vertex="1">
          <mxGeometry x="290" y="540" width="40" height="40" as="geometry" />
        </mxCell>
        <mxCell id="DXlCyL1Qz88-cnKDvmDq-48" style="rounded=0;orthogonalLoop=1;jettySize=auto;html=1;exitX=0;exitY=1;exitDx=0;exitDy=0;entryX=0.5;entryY=0;entryDx=0;entryDy=0;" parent="1" source="DXlCyL1Qz88-cnKDvmDq-52" target="DXlCyL1Qz88-cnKDvmDq-53" edge="1">
          <mxGeometry relative="1" as="geometry" />
        </mxCell>
        <mxCell id="DXlCyL1Qz88-cnKDvmDq-49" style="edgeStyle=none;rounded=0;orthogonalLoop=1;jettySize=auto;html=1;exitX=0.5;exitY=1;exitDx=0;exitDy=0;entryX=0.5;entryY=0;entryDx=0;entryDy=0;" parent="1" source="DXlCyL1Qz88-cnKDvmDq-52" target="DXlCyL1Qz88-cnKDvmDq-54" edge="1">
          <mxGeometry relative="1" as="geometry" />
        </mxCell>
        <mxCell id="DXlCyL1Qz88-cnKDvmDq-50" style="edgeStyle=none;rounded=0;orthogonalLoop=1;jettySize=auto;html=1;exitX=0.5;exitY=1;exitDx=0;exitDy=0;entryX=0.5;entryY=0;entryDx=0;entryDy=0;" parent="1" source="DXlCyL1Qz88-cnKDvmDq-52" target="DXlCyL1Qz88-cnKDvmDq-55" edge="1">
          <mxGeometry relative="1" as="geometry" />
        </mxCell>
        <mxCell id="DXlCyL1Qz88-cnKDvmDq-52" value="&lt;font style=&quot;font-size: 18px&quot;&gt;A&lt;/font&gt;" style="ellipse;whiteSpace=wrap;html=1;aspect=fixed;" parent="1" vertex="1">
          <mxGeometry x="530" y="460" width="40" height="40" as="geometry" />
        </mxCell>
        <mxCell id="DXlCyL1Qz88-cnKDvmDq-53" value="&lt;font style=&quot;font-size: 18px&quot;&gt;B&lt;/font&gt;" style="ellipse;whiteSpace=wrap;html=1;aspect=fixed;" parent="1" vertex="1">
          <mxGeometry x="410" y="540" width="40" height="40" as="geometry" />
        </mxCell>
        <mxCell id="DXlCyL1Qz88-cnKDvmDq-54" value="&lt;font style=&quot;font-size: 18px&quot;&gt;E&lt;/font&gt;" style="ellipse;whiteSpace=wrap;html=1;aspect=fixed;" parent="1" vertex="1">
          <mxGeometry x="490" y="540" width="40" height="40" as="geometry" />
        </mxCell>
        <mxCell id="DXlCyL1Qz88-cnKDvmDq-55" value="&lt;font style=&quot;font-size: 18px&quot;&gt;C&lt;/font&gt;" style="ellipse;whiteSpace=wrap;html=1;aspect=fixed;" parent="1" vertex="1">
          <mxGeometry x="570" y="540" width="40" height="40" as="geometry" />
        </mxCell>
        <mxCell id="DXlCyL1Qz88-cnKDvmDq-65" style="rounded=0;orthogonalLoop=1;jettySize=auto;html=1;exitX=0;exitY=1;exitDx=0;exitDy=0;entryX=0.5;entryY=0;entryDx=0;entryDy=0;" parent="1" source="DXlCyL1Qz88-cnKDvmDq-69" target="DXlCyL1Qz88-cnKDvmDq-70" edge="1">
          <mxGeometry relative="1" as="geometry" />
        </mxCell>
        <mxCell id="DXlCyL1Qz88-cnKDvmDq-66" style="edgeStyle=none;rounded=0;orthogonalLoop=1;jettySize=auto;html=1;exitX=0.5;exitY=1;exitDx=0;exitDy=0;entryX=0.5;entryY=0;entryDx=0;entryDy=0;" parent="1" source="DXlCyL1Qz88-cnKDvmDq-69" target="DXlCyL1Qz88-cnKDvmDq-71" edge="1">
          <mxGeometry relative="1" as="geometry" />
        </mxCell>
        <mxCell id="DXlCyL1Qz88-cnKDvmDq-67" style="edgeStyle=none;rounded=0;orthogonalLoop=1;jettySize=auto;html=1;exitX=0.5;exitY=1;exitDx=0;exitDy=0;entryX=0.5;entryY=0;entryDx=0;entryDy=0;" parent="1" source="DXlCyL1Qz88-cnKDvmDq-69" target="DXlCyL1Qz88-cnKDvmDq-72" edge="1">
          <mxGeometry relative="1" as="geometry" />
        </mxCell>
        <mxCell id="DXlCyL1Qz88-cnKDvmDq-68" style="edgeStyle=none;rounded=0;orthogonalLoop=1;jettySize=auto;html=1;exitX=1;exitY=1;exitDx=0;exitDy=0;entryX=0.5;entryY=0;entryDx=0;entryDy=0;" parent="1" source="DXlCyL1Qz88-cnKDvmDq-69" target="DXlCyL1Qz88-cnKDvmDq-73" edge="1">
          <mxGeometry relative="1" as="geometry" />
        </mxCell>
        <mxCell id="DXlCyL1Qz88-cnKDvmDq-69" value="&lt;font style=&quot;font-size: 18px&quot;&gt;A&lt;/font&gt;" style="ellipse;whiteSpace=wrap;html=1;aspect=fixed;" parent="1" vertex="1">
          <mxGeometry x="170" y="460" width="40" height="40" as="geometry" />
        </mxCell>
        <mxCell id="DXlCyL1Qz88-cnKDvmDq-70" value="&lt;font style=&quot;font-size: 18px&quot;&gt;B&lt;/font&gt;" style="ellipse;whiteSpace=wrap;html=1;aspect=fixed;" parent="1" vertex="1">
          <mxGeometry x="50" y="540" width="40" height="40" as="geometry" />
        </mxCell>
        <mxCell id="DXlCyL1Qz88-cnKDvmDq-71" value="&lt;font style=&quot;font-size: 18px&quot;&gt;C&lt;/font&gt;" style="ellipse;whiteSpace=wrap;html=1;aspect=fixed;" parent="1" vertex="1">
          <mxGeometry x="130" y="540" width="40" height="40" as="geometry" />
        </mxCell>
        <mxCell id="DXlCyL1Qz88-cnKDvmDq-72" value="&lt;font style=&quot;font-size: 18px&quot;&gt;D&lt;/font&gt;" style="ellipse;whiteSpace=wrap;html=1;aspect=fixed;" parent="1" vertex="1">
          <mxGeometry x="210" y="540" width="40" height="40" as="geometry" />
        </mxCell>
        <mxCell id="DXlCyL1Qz88-cnKDvmDq-73" value="&lt;font style=&quot;font-size: 18px&quot;&gt;F&lt;/font&gt;" style="ellipse;whiteSpace=wrap;html=1;aspect=fixed;" parent="1" vertex="1">
          <mxGeometry x="290" y="540" width="40" height="40" as="geometry" />
        </mxCell>
        <mxCell id="DXlCyL1Qz88-cnKDvmDq-74" style="rounded=0;orthogonalLoop=1;jettySize=auto;html=1;exitX=0;exitY=1;exitDx=0;exitDy=0;entryX=0.5;entryY=0;entryDx=0;entryDy=0;" parent="1" source="DXlCyL1Qz88-cnKDvmDq-78" target="DXlCyL1Qz88-cnKDvmDq-79" edge="1">
          <mxGeometry relative="1" as="geometry" />
        </mxCell>
        <mxCell id="DXlCyL1Qz88-cnKDvmDq-75" style="edgeStyle=none;rounded=0;orthogonalLoop=1;jettySize=auto;html=1;exitX=0.5;exitY=1;exitDx=0;exitDy=0;entryX=0.5;entryY=0;entryDx=0;entryDy=0;" parent="1" source="DXlCyL1Qz88-cnKDvmDq-78" target="DXlCyL1Qz88-cnKDvmDq-80" edge="1">
          <mxGeometry relative="1" as="geometry" />
        </mxCell>
        <mxCell id="xLEmRWIhqkkdyBfKkRF5-12" style="edgeStyle=none;rounded=0;orthogonalLoop=1;jettySize=auto;html=1;exitX=1;exitY=1;exitDx=0;exitDy=0;entryX=0.5;entryY=0;entryDx=0;entryDy=0;strokeWidth=1;" edge="1" parent="1" source="DXlCyL1Qz88-cnKDvmDq-78" target="xLEmRWIhqkkdyBfKkRF5-10">
          <mxGeometry relative="1" as="geometry" />
        </mxCell>
        <mxCell id="xLEmRWIhqkkdyBfKkRF5-13" style="edgeStyle=none;rounded=0;orthogonalLoop=1;jettySize=auto;html=1;entryX=0;entryY=0;entryDx=0;entryDy=0;strokeWidth=1;exitX=0.936;exitY=0.714;exitDx=0;exitDy=0;exitPerimeter=0;" edge="1" parent="1" source="DXlCyL1Qz88-cnKDvmDq-78" target="xLEmRWIhqkkdyBfKkRF5-11">
          <mxGeometry relative="1" as="geometry">
            <mxPoint x="570" y="490" as="sourcePoint" />
          </mxGeometry>
        </mxCell>
        <mxCell id="DXlCyL1Qz88-cnKDvmDq-78" value="&lt;font style=&quot;font-size: 18px&quot;&gt;A&lt;/font&gt;" style="ellipse;whiteSpace=wrap;html=1;aspect=fixed;" parent="1" vertex="1">
          <mxGeometry x="530" y="460" width="40" height="40" as="geometry" />
        </mxCell>
        <mxCell id="DXlCyL1Qz88-cnKDvmDq-79" value="&lt;font style=&quot;font-size: 18px&quot;&gt;C&lt;/font&gt;" style="ellipse;whiteSpace=wrap;html=1;aspect=fixed;" parent="1" vertex="1">
          <mxGeometry x="410" y="540" width="40" height="40" as="geometry" />
        </mxCell>
        <mxCell id="DXlCyL1Qz88-cnKDvmDq-80" value="&lt;font style=&quot;font-size: 18px&quot;&gt;F&lt;/font&gt;" style="ellipse;whiteSpace=wrap;html=1;aspect=fixed;" parent="1" vertex="1">
          <mxGeometry x="490" y="540" width="40" height="40" as="geometry" />
        </mxCell>
        <mxCell id="DXlCyL1Qz88-cnKDvmDq-81" value="&lt;font style=&quot;font-size: 18px&quot;&gt;D&lt;/font&gt;" style="ellipse;whiteSpace=wrap;html=1;aspect=fixed;" parent="1" vertex="1">
          <mxGeometry x="570" y="540" width="40" height="40" as="geometry" />
        </mxCell>
        <mxCell id="DXlCyL1Qz88-cnKDvmDq-100" value="&lt;font color=&quot;#ffffff&quot;&gt;old_S&lt;/font&gt;" style="text;html=1;align=center;verticalAlign=middle;whiteSpace=wrap;rounded=0;fillColor=#FF3333;" parent="1" vertex="1">
          <mxGeometry x="50" y="620" width="40" height="20" as="geometry" />
        </mxCell>
        <mxCell id="DXlCyL1Qz88-cnKDvmDq-104" value="" style="endArrow=classic;html=1;strokeColor=#FF3333;strokeWidth=5;fillColor=#FF3333;" parent="1" edge="1">
          <mxGeometry width="50" height="50" relative="1" as="geometry">
            <mxPoint x="70.25" y="620" as="sourcePoint" />
            <mxPoint x="69.75" y="590" as="targetPoint" />
          </mxGeometry>
        </mxCell>
        <mxCell id="DXlCyL1Qz88-cnKDvmDq-106" value="&lt;font color=&quot;#ffffff&quot;&gt;old_E&lt;/font&gt;" style="text;html=1;align=center;verticalAlign=middle;whiteSpace=wrap;rounded=0;fillColor=#FF3333;" parent="1" vertex="1">
          <mxGeometry x="290" y="620" width="40" height="20" as="geometry" />
        </mxCell>
        <mxCell id="DXlCyL1Qz88-cnKDvmDq-107" value="" style="endArrow=classic;html=1;strokeColor=#FF3333;strokeWidth=5;fillColor=#FF3333;" parent="1" edge="1">
          <mxGeometry width="50" height="50" relative="1" as="geometry">
            <mxPoint x="310.25" y="619.9999999999999" as="sourcePoint" />
            <mxPoint x="309.75" y="590" as="targetPoint" />
          </mxGeometry>
        </mxCell>
        <mxCell id="DXlCyL1Qz88-cnKDvmDq-108" value="&lt;font color=&quot;#ffffff&quot;&gt;S&lt;/font&gt;" style="text;html=1;align=center;verticalAlign=middle;whiteSpace=wrap;rounded=0;fillColor=#FF3333;" parent="1" vertex="1">
          <mxGeometry x="420" y="620" width="20" height="20" as="geometry" />
        </mxCell>
        <mxCell id="DXlCyL1Qz88-cnKDvmDq-109" value="" style="endArrow=classic;html=1;strokeColor=#FF3333;strokeWidth=5;fillColor=#FF3333;" parent="1" edge="1">
          <mxGeometry width="50" height="50" relative="1" as="geometry">
            <mxPoint x="430.25" y="619.9999999999999" as="sourcePoint" />
            <mxPoint x="429.75" y="590" as="targetPoint" />
          </mxGeometry>
        </mxCell>
        <mxCell id="DXlCyL1Qz88-cnKDvmDq-110" value="&lt;font color=&quot;#ffffff&quot;&gt;E&lt;/font&gt;" style="text;html=1;align=center;verticalAlign=middle;whiteSpace=wrap;rounded=0;fillColor=#FF3333;" parent="1" vertex="1">
          <mxGeometry x="580" y="620" width="20" height="20" as="geometry" />
        </mxCell>
        <mxCell id="DXlCyL1Qz88-cnKDvmDq-111" value="" style="endArrow=classic;html=1;strokeColor=#FF3333;strokeWidth=5;fillColor=#FF3333;" parent="1" edge="1">
          <mxGeometry width="50" height="50" relative="1" as="geometry">
            <mxPoint x="590.25" y="619.9999999999999" as="sourcePoint" />
            <mxPoint x="589.75" y="590" as="targetPoint" />
          </mxGeometry>
        </mxCell>
        <mxCell id="DXlCyL1Qz88-cnKDvmDq-314" value="" style="rounded=0;whiteSpace=wrap;html=1;strokeColor=#080703;fillColor=#FCFFF2;" parent="1" vertex="1">
          <mxGeometry x="670" y="400" width="90" height="80" as="geometry" />
        </mxCell>
        <mxCell id="DXlCyL1Qz88-cnKDvmDq-315" value="" style="endArrow=none;html=1;strokeColor=#FF3333;strokeWidth=5;fillColor=#FF3333;" parent="1" edge="1">
          <mxGeometry width="50" height="50" relative="1" as="geometry">
            <mxPoint x="680" y="432" as="sourcePoint" />
            <mxPoint x="720" y="432" as="targetPoint" />
          </mxGeometry>
        </mxCell>
        <mxCell id="DXlCyL1Qz88-cnKDvmDq-316" value="" style="endArrow=none;html=1;strokeWidth=5;fillColor=#FF3333;strokeColor=#3399FF;" parent="1" edge="1">
          <mxGeometry width="50" height="50" relative="1" as="geometry">
            <mxPoint x="680" y="451" as="sourcePoint" />
            <mxPoint x="720" y="451" as="targetPoint" />
          </mxGeometry>
        </mxCell>
        <mxCell id="DXlCyL1Qz88-cnKDvmDq-317" value="" style="endArrow=none;html=1;strokeWidth=5;fillColor=#FF3333;strokeColor=#33FF99;" parent="1" edge="1">
          <mxGeometry width="50" height="50" relative="1" as="geometry">
            <mxPoint x="680" y="468" as="sourcePoint" />
            <mxPoint x="720" y="468" as="targetPoint" />
          </mxGeometry>
        </mxCell>
        <mxCell id="DXlCyL1Qz88-cnKDvmDq-318" value="减少" style="text;html=1;strokeColor=none;fillColor=none;align=center;verticalAlign=middle;whiteSpace=wrap;rounded=0;" parent="1" vertex="1">
          <mxGeometry x="720" y="420" width="40" height="20" as="geometry" />
        </mxCell>
        <mxCell id="DXlCyL1Qz88-cnKDvmDq-319" value="不变" style="text;html=1;strokeColor=none;fillColor=none;align=center;verticalAlign=middle;whiteSpace=wrap;rounded=0;" parent="1" vertex="1">
          <mxGeometry x="720" y="440" width="40" height="20" as="geometry" />
        </mxCell>
        <mxCell id="DXlCyL1Qz88-cnKDvmDq-320" value="增加" style="text;html=1;strokeColor=none;fillColor=none;align=center;verticalAlign=middle;whiteSpace=wrap;rounded=0;" parent="1" vertex="1">
          <mxGeometry x="720" y="460" width="40" height="20" as="geometry" />
        </mxCell>
        <mxCell id="DXlCyL1Qz88-cnKDvmDq-321" value="" style="endArrow=none;html=1;strokeWidth=5;fillColor=#FF3333;strokeColor=#9933FF;" parent="1" edge="1">
          <mxGeometry width="50" height="50" relative="1" as="geometry">
            <mxPoint x="680" y="412" as="sourcePoint" />
            <mxPoint x="720" y="412" as="targetPoint" />
          </mxGeometry>
        </mxCell>
        <mxCell id="DXlCyL1Qz88-cnKDvmDq-322" value="移动" style="text;html=1;strokeColor=none;fillColor=none;align=center;verticalAlign=middle;whiteSpace=wrap;rounded=0;" parent="1" vertex="1">
          <mxGeometry x="720" y="400" width="40" height="20" as="geometry" />
        </mxCell>
        <mxCell id="xLEmRWIhqkkdyBfKkRF5-2" value="&lt;font style=&quot;font-size: 18px&quot;&gt;B&lt;/font&gt;" style="ellipse;whiteSpace=wrap;html=1;aspect=fixed;" vertex="1" parent="1">
          <mxGeometry x="90" y="260" width="40" height="40" as="geometry" />
        </mxCell>
        <mxCell id="xLEmRWIhqkkdyBfKkRF5-4" value="&lt;font style=&quot;font-size: 18px&quot;&gt;F&lt;/font&gt;" style="ellipse;whiteSpace=wrap;html=1;aspect=fixed;" vertex="1" parent="1">
          <mxGeometry x="170" y="260" width="40" height="40" as="geometry" />
        </mxCell>
        <mxCell id="xLEmRWIhqkkdyBfKkRF5-7" value="&lt;font style=&quot;font-size: 18px&quot;&gt;A&lt;/font&gt;" style="ellipse;whiteSpace=wrap;html=1;aspect=fixed;" vertex="1" parent="1">
          <mxGeometry x="450" y="260" width="40" height="40" as="geometry" />
        </mxCell>
        <mxCell id="xLEmRWIhqkkdyBfKkRF5-10" value="&lt;font style=&quot;font-size: 18px&quot;&gt;H&lt;/font&gt;" style="ellipse;whiteSpace=wrap;html=1;aspect=fixed;" vertex="1" parent="1">
          <mxGeometry x="640" y="540" width="40" height="40" as="geometry" />
        </mxCell>
        <mxCell id="xLEmRWIhqkkdyBfKkRF5-11" value="&lt;font style=&quot;font-size: 18px&quot;&gt;B&lt;/font&gt;" style="ellipse;whiteSpace=wrap;html=1;aspect=fixed;" vertex="1" parent="1">
          <mxGeometry x="710" y="540" width="40" height="40" as="geometry" />
        </mxCell>
      </root>
    </mxGraphModel>
  </diagram>
</mxfile>
